<svg width="897" height="429" fill="none" xmlns="http://www.w3.org/2000/svg"><g opacity=".8"><mask id="a" maskUnits="userSpaceOnUse" x="287.831" y="89.635" width="327" height="234" fill="#000"><path fill="#fff" d="M287.831 89.635h327v234h-327z"/><path fill-rule="evenodd" clip-rule="evenodd" d="M567.422 92.635a44.617 44.617 0 0 0-14.001 2.35c-.047.016-.092.03-.139.047l-42.474 14.458c-29.296-17.413-64.432-21.164-96.708-10.291-.115.039-.236.083-.352.12-44.453 15.134-75.609 56.524-77.528 102.993-.091 2.197 2.053 3.8 4.134 3.092l23.398-7.965a3.11 3.11 0 0 0 2.077-2.5c4.607-31.91 26.573-58.234 57.331-68.707.092-.029.174-.058.263-.089 28.663-9.657 59.416-3.519 81.862 14.159.58.457 1.352.597 2.052.36l55.355-18.716.047-.016c7.959-2.68 16.648 1.51 19.393 9.355 2.747 7.861-1.496 16.461-9.457 19.177l.015.047-252.1 85.726c-11.127 3.791-20.103 11.641-25.272 22.114-5.166 10.471-5.897 22.285-2.058 33.267 3.838 10.982 11.797 19.839 22.408 24.937 10.611 5.1 22.55 5.842 33.716 2.034l42.474-14.461c29.296 17.416 64.427 21.17 96.702 10.294.116-.041.237-.083.353-.119 44.459-15.135 75.614-56.528 77.533-102.997.091-2.197-2.053-3.8-4.134-3.091l-23.398 7.966a3.114 3.114 0 0 0-2.077 2.501c-4.609 31.907-26.576 58.234-57.334 68.702-.089.031-.173.063-.26.094-28.658 9.649-59.396 3.522-81.839-14.141a2.186 2.186 0 0 0-2.05-.361l-55.382 18.697-.048.015c-7.955 2.68-16.647-1.507-19.39-9.352-2.75-7.864 1.496-16.469 9.468-19.185l252.075-85.765c18.225-6.206 29.704-23.085 29.746-41.123v-.156A42.923 42.923 0 0 0 609.407 122c-3.842-10.982-11.8-19.838-22.411-24.936-6.058-2.911-12.557-4.395-19.088-4.429h-.486Z"/></mask><path fill-rule="evenodd" clip-rule="evenodd" d="M567.422 92.635a44.617 44.617 0 0 0-14.001 2.35c-.047.016-.092.03-.139.047l-42.474 14.458c-29.296-17.413-64.432-21.164-96.708-10.291-.115.039-.236.083-.352.12-44.453 15.134-75.609 56.524-77.528 102.993-.091 2.197 2.053 3.8 4.134 3.092l23.398-7.965a3.11 3.11 0 0 0 2.077-2.5c4.607-31.91 26.573-58.234 57.331-68.707.092-.029.174-.058.263-.089 28.663-9.657 59.416-3.519 81.862 14.159.58.457 1.352.597 2.052.36l55.355-18.716.047-.016c7.959-2.68 16.648 1.51 19.393 9.355 2.747 7.861-1.496 16.461-9.457 19.177l.015.047-252.1 85.726c-11.127 3.791-20.103 11.641-25.272 22.114-5.166 10.471-5.897 22.285-2.058 33.267 3.838 10.982 11.797 19.839 22.408 24.937 10.611 5.1 22.55 5.842 33.716 2.034l42.474-14.461c29.296 17.416 64.427 21.17 96.702 10.294.116-.041.237-.083.353-.119 44.459-15.135 75.614-56.528 77.533-102.997.091-2.197-2.053-3.8-4.134-3.091l-23.398 7.966a3.114 3.114 0 0 0-2.077 2.501c-4.609 31.907-26.576 58.234-57.334 68.702-.089.031-.173.063-.26.094-28.658 9.649-59.396 3.522-81.839-14.141a2.186 2.186 0 0 0-2.05-.361l-55.382 18.697-.048.015c-7.955 2.68-16.647-1.507-19.39-9.352-2.75-7.864 1.496-16.469 9.468-19.185l252.075-85.765c18.225-6.206 29.704-23.085 29.746-41.123v-.156A42.923 42.923 0 0 0 609.407 122c-3.842-10.982-11.8-19.838-22.411-24.936-6.058-2.911-12.557-4.395-19.088-4.429h-.486Z" fill="#E3EAF3"/><path clip-rule="evenodd" d="M567.422 92.635a44.617 44.617 0 0 0-14.001 2.35c-.047.016-.092.03-.139.047l-42.474 14.458c-29.296-17.413-64.432-21.164-96.708-10.291-.115.039-.236.083-.352.12-44.453 15.134-75.609 56.524-77.528 102.993-.091 2.197 2.053 3.8 4.134 3.092l23.398-7.965a3.11 3.11 0 0 0 2.077-2.5c4.607-31.91 26.573-58.234 57.331-68.707.092-.029.174-.058.263-.089 28.663-9.657 59.416-3.519 81.862 14.159.58.457 1.352.597 2.052.36l55.355-18.716.047-.016c7.959-2.68 16.648 1.51 19.393 9.355 2.747 7.861-1.496 16.461-9.457 19.177l.015.047-252.1 85.726c-11.127 3.791-20.103 11.641-25.272 22.114-5.166 10.471-5.897 22.285-2.058 33.267 3.838 10.982 11.797 19.839 22.408 24.937 10.611 5.1 22.55 5.842 33.716 2.034l42.474-14.461c29.296 17.416 64.427 21.17 96.702 10.294.116-.041.237-.083.353-.119 44.459-15.135 75.614-56.528 77.533-102.997.091-2.197-2.053-3.8-4.134-3.091l-23.398 7.966a3.114 3.114 0 0 0-2.077 2.501c-4.609 31.907-26.576 58.234-57.334 68.702-.089.031-.173.063-.26.094-28.658 9.649-59.396 3.522-81.839-14.141a2.186 2.186 0 0 0-2.05-.361l-55.382 18.697-.048.015c-7.955 2.68-16.647-1.507-19.39-9.352-2.75-7.864 1.496-16.469 9.468-19.185l252.075-85.765c18.225-6.206 29.704-23.085 29.746-41.123v-.156A42.923 42.923 0 0 0 609.407 122c-3.842-10.982-11.8-19.838-22.411-24.936-6.058-2.911-12.557-4.395-19.088-4.429h-.486Z" stroke="#697584" stroke-width="4.309" mask="url(#a)"/><path opacity=".5" fill="url(#b)" d="M0 320.991h896.191v2.154H0z"/><path opacity=".5" fill="url(#c)" d="M0 90.481h896.191v2.154H0z"/><path opacity=".5" fill="url(#d)" d="M0 204.659h896.191v2.154H0z"/><path opacity=".5" transform="rotate(90 290.831 0)" fill="url(#e)" d="M290.831 0h428.707v2.154H290.831z"/><path opacity=".5" transform="rotate(90 613.977 0)" fill="url(#f)" d="M613.977 0h428.707v2.154H613.977z"/><path opacity=".5" transform="rotate(90 568.737 0)" fill="url(#g)" d="M568.737 0h428.707v2.154H568.737z"/><path opacity=".5" transform="rotate(90 336.072 0)" fill="url(#h)" d="M336.072 0h428.707v2.154H336.072z"/></g><rect x="486" y="243" width="80" height="80" rx="4.267" fill="url(#i)"/><path d="M517.829 275.637h6.485v21.636c0 2-.45 3.737-1.349 5.212-.888 1.475-2.126 2.611-3.712 3.409-1.586.798-3.429 1.197-5.53 1.197-1.869 0-3.566-.328-5.091-.985-1.515-.666-2.717-1.677-3.606-3.03-.889-1.364-1.328-3.076-1.318-5.136h6.53c.02.818.187 1.52.5 2.106a3.42 3.42 0 0 0 1.318 1.333c.566.303 1.233.455 2 .455.808 0 1.49-.172 2.046-.516.565-.353.995-.868 1.288-1.545.293-.677.439-1.51.439-2.5v-21.636Zm28.742 8.924c-.121-1.222-.641-2.172-1.56-2.849-.919-.676-2.167-1.015-3.743-1.015-1.07 0-1.974.152-2.712.455-.737.293-1.303.702-1.697 1.227a2.958 2.958 0 0 0-.575 1.788c-.021.555.096 1.04.348 1.454.263.415.621.773 1.076 1.076.454.293.98.551 1.576.773.596.212 1.232.394 1.909.545l2.788.667c1.353.303 2.596.707 3.727 1.212 1.131.505 2.111 1.126 2.939 1.864a7.724 7.724 0 0 1 1.924 2.606c.465 1 .703 2.146.713 3.439-.01 1.899-.495 3.546-1.455 4.94-.949 1.383-2.323 2.459-4.121 3.227-1.788.757-3.945 1.136-6.47 1.136-2.505 0-4.687-.384-6.545-1.151-1.849-.768-3.293-1.904-4.334-3.409-1.03-1.515-1.57-3.389-1.621-5.622h6.349c.07 1.041.368 1.91.894 2.607.535.686 1.247 1.207 2.136 1.56.899.344 1.914.515 3.045.515 1.112 0 2.076-.161 2.894-.485.829-.323 1.47-.772 1.925-1.348a3.116 3.116 0 0 0 .681-1.985c0-.697-.207-1.283-.621-1.757-.404-.475-1-.879-1.788-1.213-.777-.333-1.732-.636-2.863-.909l-3.379-.848c-2.616-.637-4.682-1.632-6.197-2.985-1.515-1.354-2.268-3.177-2.258-5.47-.01-1.879.49-3.52 1.5-4.924 1.021-1.404 2.42-2.5 4.197-3.288 1.778-.788 3.798-1.182 6.061-1.182 2.303 0 4.313.394 6.03 1.182 1.727.788 3.071 1.884 4.031 3.288.959 1.404 1.454 3.03 1.484 4.879h-6.288Z" fill="#DDD"/><defs><linearGradient id="b" x1="896.191" y1="323.148" x2="0" y2="323.147" gradientUnits="userSpaceOnUse"><stop stop-color="#697584" stop-opacity="0"/><stop offset=".51" stop-color="#697584"/><stop offset="1" stop-color="#697584" stop-opacity="0"/></linearGradient><linearGradient id="c" x1="896.191" y1="92.638" x2="0" y2="92.636" gradientUnits="userSpaceOnUse"><stop stop-color="#697584" stop-opacity="0"/><stop offset=".51" stop-color="#697584"/><stop offset="1" stop-color="#697584" stop-opacity="0"/></linearGradient><linearGradient id="d" x1="896.191" y1="206.816" x2="0" y2="206.814" gradientUnits="userSpaceOnUse"><stop stop-color="#697584" stop-opacity="0"/><stop offset=".51" stop-color="#697584"/><stop offset="1" stop-color="#697584" stop-opacity="0"/></linearGradient><linearGradient id="e" x1="719.538" y1="2.157" x2="290.831" y2="2.156" gradientUnits="userSpaceOnUse"><stop stop-color="#697584" stop-opacity="0"/><stop offset=".51" stop-color="#697584"/><stop offset="1" stop-color="#697584" stop-opacity="0"/></linearGradient><linearGradient id="f" x1="1042.68" y1="2.157" x2="613.977" y2="2.156" gradientUnits="userSpaceOnUse"><stop stop-color="#697584" stop-opacity="0"/><stop offset=".51" stop-color="#697584"/><stop offset="1" stop-color="#697584" stop-opacity="0"/></linearGradient><linearGradient id="g" x1="997.443" y1="2.157" x2="568.737" y2="2.156" gradientUnits="userSpaceOnUse"><stop stop-color="#697584" stop-opacity="0"/><stop offset=".51" stop-color="#697584"/><stop offset="1" stop-color="#697584" stop-opacity="0"/></linearGradient><linearGradient id="h" x1="764.778" y1="2.157" x2="336.072" y2="2.156" gradientUnits="userSpaceOnUse"><stop stop-color="#697584" stop-opacity="0"/><stop offset=".51" stop-color="#697584"/><stop offset="1" stop-color="#697584" stop-opacity="0"/></linearGradient><linearGradient id="i" x1="526" y1="243" x2="526" y2="323" gradientUnits="userSpaceOnUse"><stop stop-color="#63ACF6"/><stop offset="1" stop-color="#1F9CFF"/></linearGradient></defs></svg>